<svg xmlns="http://www.w3.org/2000/svg" xmlns:xlink="http://www.w3.org/1999/xlink" version="1.1" x="0px" y="0px" viewBox="233.464 466.929 100 125" enable-background="new 233.464 466.929 100 100" xml:space="preserve"><g><path d="M304.15,471.929c-16.517,0-16.517,7.429-16.517,16.68c0,8.505,0,16.55,12.669,16.55c0.875,0,0.676,1.688,0.398,2.435   c-0.602,1.632-1.963,3.002-3.67,3.894c4.428-0.106,8.812-2.618,10.965-6.328c12.672,0,12.672-8.045,12.672-16.55   C320.667,479.358,320.667,471.929,304.15,471.929z M305.333,499.798c-0.455,0.406-0.982,0.607-1.582,0.607   c-0.615,0-1.158-0.199-1.619-0.602c-0.459-0.398-0.691-0.959-0.691-1.68c0-0.639,0.223-1.177,0.668-1.611   c0.447-0.436,0.992-0.654,1.643-0.654c0.639,0,1.178,0.219,1.611,0.654c0.436,0.435,0.656,0.973,0.656,1.611   C306.019,498.835,305.791,499.393,305.333,499.798z M311.015,485.716c-0.352,0.647-0.768,1.208-1.248,1.68   c-0.48,0.473-1.344,1.265-2.592,2.38c-0.344,0.315-0.623,0.591-0.828,0.829c-0.211,0.239-0.367,0.455-0.465,0.654   c-0.104,0.197-0.18,0.395-0.236,0.593c-0.057,0.197-0.141,0.546-0.252,1.042c-0.191,1.055-0.795,1.582-1.811,1.582   c-0.525,0-0.969-0.172-1.328-0.518c-0.361-0.344-0.541-0.856-0.541-1.536c0-0.853,0.133-1.589,0.395-2.212   c0.266-0.625,0.613-1.173,1.051-1.643c0.434-0.473,1.021-1.031,1.762-1.683c0.65-0.567,1.119-0.995,1.41-1.284   c0.287-0.29,0.531-0.609,0.729-0.964c0.197-0.355,0.297-0.742,0.297-1.157c0-0.812-0.303-1.496-0.904-2.053   c-0.605-0.558-1.381-0.836-2.336-0.836c-1.115,0-1.936,0.281-2.463,0.844c-0.527,0.563-0.973,1.391-1.34,2.485   c-0.344,1.146-0.998,1.719-1.961,1.719c-0.568,0-1.047-0.2-1.438-0.6c-0.388-0.401-0.583-0.835-0.583-1.3   c0-0.964,0.309-1.939,0.925-2.929c0.622-0.989,1.523-1.807,2.71-2.457c1.188-0.648,2.57-0.973,4.15-0.973   c1.471,0,2.768,0.272,3.895,0.815c1.127,0.542,1.992,1.278,2.607,2.212c0.613,0.933,0.92,1.947,0.92,3.041   C311.539,484.311,311.365,485.067,311.015,485.716z"/><path d="M274.648,525.907c7.964,0,14.422-6.457,14.422-14.422c0-7.963-6.458-14.42-14.422-14.42   c-7.964,0-14.421,6.457-14.421,14.42C260.227,519.45,266.685,525.907,274.648,525.907z"/><path d="M286.103,525.84c-3.141,2.51-7.121,4.015-11.455,4.015c-4.333,0-8.312-1.505-11.454-4.014   c-9.083,4.012-14.695,13.227-16.866,26.386c-1.149,6.971,12.678,9.702,28.321,9.702c15.642,0,29.469-2.731,28.32-9.702   C300.796,539.068,295.186,529.852,286.103,525.84z"/></g><text x="233.464" y="581.929" fill="#000000" font-size="5px" font-weight="bold" font-family="'Helvetica Neue', Helvetica, Arial-Unicode, Arial, Sans-serif">Created by Francisco Garcia Gallegos</text><text x="233.464" y="586.929" fill="#000000" font-size="5px" font-weight="bold" font-family="'Helvetica Neue', Helvetica, Arial-Unicode, Arial, Sans-serif">from the Noun Project</text></svg>