<svg xmlns="http://www.w3.org/2000/svg" xmlns:xlink="http://www.w3.org/1999/xlink" version="1.1" x="0px" y="0px" viewBox="0 0 48 60" enable-background="new 0 0 48 48" xml:space="preserve"><g><path fill="#000000" d="M17.5,33.3l5.4-5.4c1.8,0.7,3.9,0.4,5.4-1.1c1.2-1.2,1.6-2.8,1.4-4.3L28,24.2c-1.1,1.1-3,1.1-4.1,0v0   c-1.1-1.1-1.1-3,0-4.1l1.7-1.7c-1.5-0.2-3.1,0.2-4.3,1.4c-1.5,1.5-1.8,3.6-1.1,5.4L7.3,38c-1.8-0.7-3.9-0.4-5.4,1.1   c-1.2,1.2-1.6,2.8-1.4,4.3l1.7-1.7c1.1-1.1,3-1.1,4.1,0l0,0c1.1,1.1,1.1,3,0,4.1l-1.7,1.7c1.5,0.2,3.1-0.2,4.3-1.4   c1.5-1.5,1.8-3.6,1.1-5.4L17.5,33.3z"/><path fill="#000000" d="M9.7,0.5v32.1l5.4-5.4V9.7h27v23.9H20.2l-4.7,4.7h32V0.5H9.7z M42.1,6.2h-5.6V4.1h5.6V6.2z"/></g><text x="0" y="63" fill="#000000" font-size="5px" font-weight="bold" font-family="'Helvetica Neue', Helvetica, Arial-Unicode, Arial, Sans-serif">Created by Creative Stall</text><text x="0" y="68" fill="#000000" font-size="5px" font-weight="bold" font-family="'Helvetica Neue', Helvetica, Arial-Unicode, Arial, Sans-serif">from the Noun Project</text></svg>