<svg xmlns="http://www.w3.org/2000/svg" xmlns:xlink="http://www.w3.org/1999/xlink" version="1.1" x="0px" y="0px" viewBox="0 0 100 125" style="enable-background:new 0 0 100 100;" xml:space="preserve"><g><path d="M53.967,12.608c0.549-0.785,0.872-1.739,0.872-2.77C54.839,7.166,52.673,5,50.001,5s-4.838,2.166-4.838,4.838   c0,1.03,0.323,1.985,0.872,2.77C25.091,14.604,8.708,32.242,8.708,53.708C8.708,76.514,27.195,95,50,95l0,0l0,0   c22.805,0,41.292-18.487,41.292-41.292C91.293,32.241,74.911,14.604,53.967,12.608z M15.536,53.708   c0-19.004,15.461-34.465,34.464-34.465c19.004,0,34.464,15.461,34.464,34.465S69.003,88.173,50,88.173S15.536,72.713,15.536,53.708   z M50.001,7.38c1.357,0,2.458,1.1,2.458,2.458s-1.1,2.458-2.458,2.458s-2.458-1.1-2.458-2.458S48.644,7.38,50.001,7.38z"/><path d="M50.001,21.122L50.001,21.122L50.001,21.122c-17.969,0-32.587,14.618-32.587,32.586S32.032,86.294,50,86.294l0,0l0,0   c17.968,0,32.586-14.618,32.586-32.586C82.587,35.74,67.969,21.122,50.001,21.122z M50.94,79.5v5.449h-1.879V79.5H50.94z    M49.061,27.829V22.38h1.879v5.449H49.061z M46.591,50.298l24.802-17.982L53.41,57.119L28.608,75.102L46.591,50.298z"/></g><text x="0" y="115" fill="#000000" font-size="5px" font-weight="bold" font-family="'Helvetica Neue', Helvetica, Arial-Unicode, Arial, Sans-serif">Created by Norbert Kucsera</text><text x="0" y="120" fill="#000000" font-size="5px" font-weight="bold" font-family="'Helvetica Neue', Helvetica, Arial-Unicode, Arial, Sans-serif">from the Noun Project</text></svg>