<svg xmlns="http://www.w3.org/2000/svg" xmlns:xlink="http://www.w3.org/1999/xlink" version="1.1" x="0px" y="0px" viewBox="0 0 50 62.5" enable-background="new 0 0 50 50" xml:space="preserve"><g><path fill="#000000" d="M1,35.742l13,5.08V6.801L1,1.719V35.742z M9.31,19.935c0.074-0.341,0.411-0.714,0.752-0.64   c1.132,0.248,1.475,0.483,1.607,0.557c0.307,0.169,0.418,0.515,0.249,0.821c-0.115,0.208-0.33,0.307-0.552,0.307   c-0.104,0-0.209,0.279-0.305,0.226C10.603,20.954,10.173,21,9.792,21h0.003C9.453,21,9.236,20.276,9.31,19.935z M5.629,21.578   c0.272-0.241,0.488-0.467,1.285-1.012c0.288-0.197,0.683-0.122,0.878,0.166c0.196,0.288,0.121,0.681-0.166,0.879   c-0.391,0.266-0.78,0.578-1.159,0.913l0,0c-0.12,0.106-0.269,0.158-0.418,0.158c-0.177,0-0.35-0.072-0.474-0.213   C5.343,22.207,5.367,21.809,5.629,21.578z M2.168,25.056c0.004-0.009,0.375-0.535,0.982-1.271c0.222-0.271,0.618-0.31,0.889-0.088   c0.269,0.222,0.31,0.62,0.087,0.889c-0.291,0.354-0.623,0.655-0.783,0.867C3.184,25.666,3,25.783,3,25.783v0.002   c0,0.174-0.219,0.268-0.416,0.268c-0.127,0-0.204-0.038-0.314-0.117C1.984,25.736,1.966,25.342,2.168,25.056z"/><g><g><g><path fill="none" d="M39.447,17.874c-0.301,0.43-0.594,0.866-0.881,1.306c-0.191,0.293-0.109,0.684,0.184,0.875      c0.105,0.068,0.229,0.102,0.346,0.102c0.207,0,0.408-0.1,0.527-0.285c0.281-0.432,0.568-0.857,0.859-1.274      c0.197-0.286,0.131-0.681-0.158-0.88C40.039,17.518,39.646,17.588,39.447,17.874z"/><path fill="none" d="M17.185,24.409c-0.271-0.222-0.67-0.182-0.889,0.091c-0.223,0.271-0.18,0.668,0.092,0.888      c0.424,0.345,0.848,0.672,1.271,0.971c0.109,0.077,0.236,0.114,0.362,0.114c0.198,0,0.395-0.094,0.519-0.27      c0.199-0.286,0.132-0.68-0.156-0.88C17.992,25.047,17.591,24.738,17.185,24.409z"/><path fill="none" d="M25.773,30.059c-0.121,0.014-0.238,0.021-0.355,0.021c-0.318,0-0.625-0.049-0.932-0.139      c-0.336-0.097-0.686,0.096-0.784,0.432c-0.099,0.335,0.094,0.686,0.431,0.782c0.406,0.119,0.838,0.188,1.285,0.188      c0.164,0,0.33-0.01,0.498-0.027c0.346-0.039,0.596-0.352,0.557-0.699C26.434,30.27,26.121,30.02,25.773,30.059z"/><path fill="none" d="M47.002,10.841c-0.498,0.222-0.98,0.479-1.447,0.767c-0.295,0.185-0.389,0.573-0.205,0.87      c0.119,0.193,0.328,0.299,0.539,0.299c0.113,0,0.229-0.03,0.33-0.094c0.422-0.259,0.854-0.489,1.295-0.687      c0.32-0.142,0.465-0.515,0.32-0.834C47.693,10.844,47.318,10.699,47.002,10.841z"/><path fill="none" d="M20.711,27.288c-0.272-0.216-0.671-0.169-0.889,0.104c-0.215,0.275-0.171,0.671,0.104,0.888      c0.4,0.315,0.799,0.648,1.207,0.975c0.114,0.094,0.255,0.139,0.394,0.139c0.186,0,0.368-0.081,0.495-0.235      c0.217-0.272,0.172-0.671-0.099-0.89C21.53,27.952,21.127,27.617,20.711,27.288z"/><path fill="none" d="M42.721,13.883c-0.373,0.373-0.736,0.763-1.092,1.168c-0.23,0.264-0.203,0.662,0.061,0.893      c0.121,0.104,0.27,0.155,0.414,0.155c0.178,0,0.352-0.073,0.479-0.216c0.336-0.385,0.678-0.755,1.031-1.103      c0.246-0.246,0.25-0.646,0.002-0.894C43.371,13.639,42.969,13.637,42.721,13.883z"/><path fill="#000000" d="M27,28.057V1.719L15,6.801v34.021l12-5.08v-3.499c0-0.681-0.307-1.313-0.307-1.864      C26.693,29.575,27,28.801,27,28.057z M18.541,26.203c-0.124,0.176-0.32,0.27-0.519,0.27c-0.126,0-0.253-0.037-0.362-0.114      c-0.424-0.299-0.848-0.626-1.271-0.971c-0.271-0.22-0.314-0.617-0.092-0.888c0.219-0.272,0.617-0.313,0.889-0.091      c0.406,0.329,0.807,0.638,1.199,0.914C18.672,25.523,18.74,25.917,18.541,26.203z M22.023,29.157      c-0.127,0.154-0.31,0.235-0.495,0.235c-0.139,0-0.279-0.045-0.394-0.139c-0.408-0.326-0.807-0.659-1.207-0.975      c-0.275-0.217-0.319-0.612-0.104-0.888c0.218-0.272,0.616-0.319,0.889-0.104c0.416,0.329,0.818,0.664,1.213,0.979      C22.195,28.486,22.24,28.885,22.023,29.157z M25.916,31.314c-0.168,0.018-0.334,0.027-0.498,0.027      c-0.447,0-0.879-0.068-1.285-0.188c-0.337-0.097-0.529-0.447-0.431-0.782c0.099-0.336,0.448-0.528,0.784-0.432      c0.307,0.09,0.613,0.139,0.932,0.139c0.117,0,0.234-0.007,0.355-0.021c0.348-0.039,0.661,0.211,0.7,0.557      C26.512,30.963,26.262,31.275,25.916,31.314z"/><path fill="#000000" d="M36,21.162V6.801l-7-5.082v23.04C30,22.73,33,21.367,36,21.162z"/><path fill="#000000" d="M49,1.719L37,6.801v14.396c5,0.538,8.359,4.441,8.359,9.183c0,2.132-1.767,5.397-3.644,8.481L49,35.742      V1.719z M40.482,18.597c-0.291,0.417-0.578,0.843-0.859,1.274c-0.119,0.186-0.32,0.285-0.527,0.285      c-0.117,0-0.24-0.033-0.346-0.102c-0.293-0.191-0.375-0.582-0.184-0.875c0.287-0.439,0.58-0.876,0.881-1.306      c0.199-0.286,0.592-0.356,0.877-0.157C40.613,17.916,40.68,18.311,40.482,18.597z M43.613,14.78      c-0.354,0.348-0.695,0.718-1.031,1.103c-0.127,0.143-0.301,0.216-0.479,0.216c-0.145,0-0.293-0.052-0.414-0.155      c-0.264-0.23-0.291-0.629-0.061-0.893c0.355-0.405,0.719-0.795,1.092-1.168c0.248-0.246,0.65-0.244,0.895,0.004      C43.863,14.134,43.859,14.534,43.613,14.78z M47.514,11.996c-0.441,0.197-0.873,0.428-1.295,0.687      c-0.102,0.063-0.217,0.094-0.33,0.094c-0.211,0-0.42-0.105-0.539-0.299c-0.184-0.297-0.09-0.686,0.205-0.87      c0.467-0.288,0.949-0.545,1.447-0.767c0.316-0.142,0.691,0.003,0.832,0.321C47.979,11.481,47.834,11.854,47.514,11.996z"/><path fill="#000000" d="M26.693,30.379c0,0.552,0.307,1.184,0.307,1.864v-4.187C27,28.801,26.693,29.575,26.693,30.379z"/></g><path fill="#000000" d="M36.297,49.04l-0.934-1.175c-0.975-1.224-9.513-12.113-9.513-17.486c0-5.76,4.687-10.446,10.447-10.446     c5.762,0,10.449,4.687,10.449,10.446c0,5.373-8.541,16.263-9.514,17.486L36.297,49.04z M36.297,22.321     c-4.443,0-8.059,3.614-8.059,8.058c0,3.436,5.168,10.974,8.059,14.792c2.891-3.818,8.061-11.358,8.061-14.792     C44.357,25.936,40.742,22.321,36.297,22.321z"/></g><circle fill-rule="evenodd" clip-rule="evenodd" fill="#000000" cx="36.298" cy="29.827" r="4.132"/></g></g><text x="0" y="65" fill="#000000" font-size="5px" font-weight="bold" font-family="'Helvetica Neue', Helvetica, Arial-Unicode, Arial, Sans-serif">Created by Mister Pixel</text><text x="0" y="70" fill="#000000" font-size="5px" font-weight="bold" font-family="'Helvetica Neue', Helvetica, Arial-Unicode, Arial, Sans-serif">from the Noun Project</text></svg>