<svg xmlns="http://www.w3.org/2000/svg" xmlns:xlink="http://www.w3.org/1999/xlink" xmlns:sketch="http://www.bohemiancoding.com/sketch/ns" viewBox="0 0 30 37.5" version="1.1" x="0px" y="0px"><title>arrow_d4-arrow_up-forward-direction-hexagon-upload</title><desc>Created with Sketch.</desc><g stroke="none" stroke-width="1" fill="none" fill-rule="evenodd" sketch:type="MSPage"><g sketch:type="MSArtboardGroup" transform="translate(-180.000000, -630.000000)"><path d="M208,637.495837 L207.995189,652.495837 L194.995189,660 L182,652.504163 L182.004811,637.504163 L195.004811,630 L208,637.495837 Z M207,638.066153 L206.995559,651.926153 L194.995559,658.859999 L183,651.933846 L183.004441,638.073846 L195.004441,631.14 L207,638.066153 Z M204.194774,647 L201.366347,649.828427 L195.002386,643.464466 L188.638425,649.828427 L185.809998,647 L195.002386,637.807612 L204.194774,647 Z M202.78056,647 L201.366347,648.414214 L195.002386,642.050253 L188.638425,648.414214 L187.224211,647 L195.002386,639.221825 L202.78056,647 Z" fill="#000000" sketch:type="MSShapeGroup"/></g></g><text x="0" y="45" fill="#000000" font-size="5px" font-weight="bold" font-family="'Helvetica Neue', Helvetica, Arial-Unicode, Arial, Sans-serif">Created by Pham Thi Dieu Linh</text><text x="0" y="50" fill="#000000" font-size="5px" font-weight="bold" font-family="'Helvetica Neue', Helvetica, Arial-Unicode, Arial, Sans-serif">from the Noun Project</text></svg>